<?xml version="1.0" encoding="UTF-8"?>
<svg id="_Слой_2" data-name="Слой 2" xmlns="http://www.w3.org/2000/svg" viewBox="0 0 191.09 146.81">
  <defs>
    <style>
      .cls-1 {
        fill: #fff;
      }

      .cls-1, .cls-2, .cls-3, .cls-4, .cls-5, .cls-6, .cls-7 {
        fill-rule: evenodd;
      }

      .cls-2 {
        fill: #d77d1a;
      }

      .cls-8 {
        fill: #1b1b1b;
      }

      .cls-3 {
        fill: #eec725;
      }

      .cls-4 {
        fill: #c2d52f;
      }

      .cls-5 {
        fill: #bd2e21;
      }

      .cls-6 {
        fill: #44a0d0;
      }

      .cls-7 {
        fill: #95c52d;
      }
    </style>
  </defs>
  <g id="_Слой_1-2" data-name="Слой 1">
    <path class="cls-1" d="m44.17,13.6c9.85-8.2,28.31-10.25,45.89-10.25s51.5,6.83,60.29,19.04c8.79,12.2,21.97,54.92,5.61,87.62-16.35,32.71-51.65,36.07-81.52,28.8-29.87-7.27-50.77-28.56-48.33-65.17,2.44-36.61,1.46-46.37,18.06-60.04"/>
    <path class="cls-6" d="m53.04,12.17c-20.97,9.11-15.46,16.28-21.68,35.22-4.95,15.08-.16,53.03,9.22,65.34,17.3,22.7,36.21,25.82,64.54,26.36,34.48.66,57.21-34.34,54.32-66.4-1.85-20.61-.52-42.37-31.73-59.2-11.71-6.31-56.56-10.03-68.98-3.74-2.33,1.18-3.95,1.65-5.7,2.41m-3.49-4.49c-17.78,10.8-18.83,11.84-23.92,33.42-5.61,23.79-5.92,57.98,9.3,78.44,2.53,3.4,2.94,8.23,9.64,11.99,27.7,15.56,14.52,10.27,47.79,14.84,18.76,2.58,53.08-6.62,62.97-25.17,13.35-25.04,14.42-37.33,12.87-66.15-.48-8.88-4.59-28.33-17.52-40.43C134.14-.83,96.62-2.31,75.16,2.29c-10.84,2.33-15.55-.72-25.61,5.4Z"/>
    <path class="cls-4" d="m133.63,30.72c1.14-21.38-33.45-3.66-6.06,5.94,1.26.44,5.87-2.35,6.06-5.94"/>
    <path class="cls-7" d="m85.12,121.93c-8.36,13.44,25.48,18.64,18.06-2.02-3.29-9.16-13.95-4.58-18.06,2.02"/>
    <path class="cls-3" d="m127.32,98.51c33.46,19.17,34.01-50.48-2.18-14.12-4.73,4.75-.95,12.32,2.18,14.12"/>
    <path class="cls-2" d="m110.85,122.07c15.15-3.67,6.75-18.93-6.69-8.89-1.5,1.12,1.54,10.14,6.69,8.89"/>
    <path class="cls-3" d="m52.55,90.97c-11.76,10.25-.33,35.83,18.2,20.72,11.36-9.26,2.18-28.38-12.72-25.34-1.06.22-4.67,3.92-5.48,4.63"/>
    <path class="cls-3" d="m42.79,57.8c6.74,24.64,33.75,31.18,57.62,30.12,29.69-1.32,49.48-62.36-23.51-58.47-19.53,1.04-30.81,11.45-34.11,28.35"/>
    <path class="cls-5" d="m177.8,140.76c0-4.17,1-11.73,1-19.57,0-13.94-2.51-97.16,1.91-104.44,1.66-2.74,10.5,16.81,10.39,28.33-.33,32.68-6.98,17.73-6.98,45.49,0,6.02.37,50.74-2.96,51.56-1.06.26-3.35-.63-3.35-1.36"/>
    <path class="cls-2" d="m17.21,119.97c-.89-11.11-1.88-15.49-4.15-26.27-1.1-5.22-3.45-37.42.74-38.68,6.26-1.88,9.16-23.32,7.62-32.91-1.66-10.32-4.41-3.69-3.8,3.95.33,4.17-3.47,30.18-5.31,7.14-.36-4.52.87-15.07-2.3-18.02-4.91,4.33,1.59,33.63-3.71,26.11-1.81-2.57-1.72-28.68-4.37-21.52-3.34,9.02-3.05,31.3,6.08,37.4.2.13,3.54,66.31,2.39,73.14-.76,4.53-.1,13.04,2.29,13.03,7.2-.02,4.98-17.43,4.51-23.36"/>
    <path class="cls-8" d="m152.71,69.43c.04-2.77-.82-3.95-2.59-3.9-4.41.14-7.36,5.36-5.23,9.17.64,1.23,1.68,1.82,3.04,1.63,1.41-.23,3.14-.05,3.68-1.91.54-1.77,1.04-3.54,1.09-4.99m-11.9,2.22c.05-7.44,5.77-10.89,11.36-7.85.77.41,1.54.73,2.31,1.18,2.41,1.32,3.4,4.27,2.54,6.85-1.23,3.54-3.4,6.13-6.81,7.72-1.27.59-2.46.64-3.78.09-3.99-1.73-5.81-4.72-5.63-7.99Zm-15,7.79c-2.54-1.68-3.81-4.04-4.63-6.63-1.04-3.81-1.77-7.63-1.82-11.53,0-.45,0-.95.04-1.41.32-2.04,2.09-3.04,3.95-2.09,1.45.68,2.27,1.86,2.45,3.5l.54,4.86c.09,1.09.27,2.04,1.63,2.22,1.13.14,2.5-.68,2.81-1.91.27-.68.27-1.41.36-2.09.32-1.59.64-3.22,1.77-4.49,1.5-1.82,3.09-1.68,4.4.23.68,1.04,1.09,2.22,1.18,3.5,0,4.04.64,7.9,1.5,11.8.18.86.41,1.68-.95,1.86-.73.14-.86.82-.77,1.54.05.27.14.54.23.86.14.68.95,1.54.05,2.09-.64.36-1.09-.64-1.63-1.04-2.32-2.09-3.5-4.9-4.68-7.76-.32-.82-.45-2-1.59-1.95-1.32,0-2.45.5-3.09,1.72-.41.64-.5,1.41-1.36,1.82-.64.27-.5,1.23-.5,1.91,0,.95.45,1.82.09,3Zm-13.58.54c-6.26-.18-10.43-7.35-7.84-13.56,1.08-2.58,2.81-4.62,5.67-5.48,2.32-.73,5.58.45,6.76,2.59.27.5.77,1.17-.05,1.58-.64.32-1.09-.23-1.32-.77-.58-1.4-1.26-2.81-3.17-2.4-1.91.45-3.31,1.27-3.95,3.44-.59,2.27-1.04,4.4-.45,6.76.64,2.59,1.86,3.58,4.63,3.26,1.23-.14,2.41-.58,3.62-.81,1.23-.23,1.72.18,1.32,1.54-1.13,3.31-1.91,3.95-5.21,3.86Zm-18.84,4.61c-.05-.54.23-1.32-.45-1.68-.68-.32-1.18.32-1.67.64-.73.5-1.36,1.09-1.85,1.82-.91,1.27-.86,2.5.13,3.13.86.54,2.4.14,3.12-.91.64-.86.68-1.91.73-3Zm8.58-7.31c.18,5.4-.68,10.17-3.13,14.62-1.27,2.32-2.91,3.45-5.63,3-1.76-.32-3.58-.41-5.34-1-1.77-.64-2.13-1.14-1.91-3,.41-3.54,2.13-6.45,4.94-8.35,2.35-1.63,3.22-3.54,2.99-6.22-.14-1.09-.09-2.22-.14-3.31,0-.32-.14-.64-.45-.77-.5-.18-.73.14-.95.5-.27.36-.45.82-.76,1.18-1.5,1.91-4.49,1.82-5.89-.14-.64-.91-1.13-1.95-1.32-3.04-.68-4.09-.27-8.03,1.91-11.67l.14-.23c.59-.73,1.09-1.82,2.13-1.59,1.26.27,1.17,1.54,1.35,2.54.36,2.32-.23,4.59-.54,6.85-.09.91-.91,1.95.14,2.63.9.54,1.85-.09,2.71-.45,1.54-.73,2.45-1.95,2.72-3.63.32-1.82.82-3.59,1.77-5.17.32-.59.59-1.41,1.45-1.32.86.09,1.04.95,1.18,1.63.5,2.41,1.04,4.77,1.45,7.22.54,3.36,1.45,6.67,1.18,9.71Zm-22.63-19.36c.5.91-.09,1.54-.5,2.18-1.04,1.54-1.95,3.18-3.18,4.58-1.63,1.86-1.54,2.81.45,4.45,2.27,1.86,4.58,3.63,6.04,6.31.18.36.45.73.68,1.13.18.41.36.86-.05,1.23-.36.32-.86.27-1.27.05-.68-.36-1.36-.82-2-1.27-1.54-1.18-3-2.5-4.59-3.63-1.45-1-1.91-.77-2.36.95-.18.73-.36,1.41-.45,2.09-.18,2.41-2,3.18-3.86,3.9-.54.18-1.04.05-1.41-.45-1.32-1.95-2.9-3.72-3.04-6.35-.27-3.99-.23-7.99-.14-11.98.04-1.18.5-2.22,1.36-3.09,1.18-1.27,2.22-1.09,3.04.59.59,1.18,1.23,2.36,2.04,3.4,1.54,1.95,2.22,2.04,4.08.27,1.32-1.18,2.5-2.5,3.77-3.72.36-.36.68-.91,1.36-.64Zm-27.67,6.66c-1.82,1.04-4.49.86-5.04,3.18-.5,2.04-.23,4.36-.09,6.54.09.91-.36,2.68.5,2.63,1.91-.05,3.9-.59,5.67-1.41,2.54-1.09,5.22-2.81,4.99-5.86-.23-3.22-3.04-4.45-6.04-5.08Zm-4.64-2.09c-.09-.14-.59.73.27.27,3.63-1.95,5.95-5.08,7.72-8.67.36-.77.27-1.68-.5-2.27-.36-.32-.91-.82-1.45-.41-3.59,2.68-7.04,5.45-6.04,11.08Zm11.08-9.76c.04,3.86-2.22,6.17-4.09,8.71-.23.23-.41.5-.59.77.59.32,1.13.82,1.72.95,4.22,1.04,9.31,7.76,7.04,12.48-1.04,2.13-5.49,4.9-7.99,4.77-2.41-.14-4.81-.18-7.22.05-.68.05-1.45,1.04-1.95,1.77-.86,1.23-1.68,2.91-3.27,2.72-2.36-.32-1.54-2.68-1.91-4.18-2.63-10.44-1.36-20.88-.09-31.32.14-1.54,1.86-1.82,2.9-1.68.64.09,1.91.5,2.32,1.63.36,1.09.77,2.18,1.23,3.27.18.5.41.23.68.05,2.04-1.72,3.95-3.9,6.99-3.22,2,.45,3.5,1.72,4.22,3.22Z"/>
  </g>
</svg>